HIERARCHY
ROOT Hips
{
	OFFSET 0.00000 0.00000 0.00000
	CHANNELS 6 Xposition Yposition Zposition Zrotation Yrotation Xrotation 
	JOINT RightUpLegDummy
	{
		OFFSET 0 0 0
		CHANNELS 3 Zrotation Yrotation Xrotation
		JOINT RightUpLeg
		{
			OFFSET -3.52197 -3.41223 0.04002
			CHANNELS 3 Zrotation Yrotation Xrotation
			JOINT RightLeg
			{
				OFFSET 0.00006 -17.42390 1.60435
				CHANNELS 3 Zrotation Yrotation Xrotation
				JOINT RightFoot
				{
					OFFSET 0.06154 -16.50078 -1.63900
					CHANNELS 3 Zrotation Yrotation Xrotation
					JOINT RightToes
					{
						OFFSET 0.00298 -1.73825 3.34613
						CHANNELS 3 Zrotation Yrotation Xrotation
						End Site
						{
							OFFSET 0.00480 -0.05416 3.85043
						}
					}
				}
			}
		}
	}
	JOINT SpineDummy
	{
		OFFSET 0 0 0
		CHANNELS 3 Zrotation Yrotation Xrotation
		JOINT Spine
		{
			OFFSET 0.00000 4.68130 0.00000
			CHANNELS 3 Zrotation Yrotation Xrotation
			JOINT Spine1
			{
				OFFSET -0.00000 10.10138 0.05002
				CHANNELS 3 Zrotation Yrotation Xrotation
				JOINT HEadDummy
				{
					OFFSET 0 0 0
					CHANNELS 3 Zrotation Yrotation Xrotation
					JOINT Head
					{
						OFFSET -0.00000 3.43865 0.00438
						CHANNELS 3 Zrotation Yrotation Xrotation
						End Site
						{
							OFFSET -0.11417 5.02924 0.98962
						}
					}
				}
				JOINT LeftShoulder1Dummy
				{
					OFFSET 0 0 0
					CHANNELS 3 Zrotation Yrotation Xrotation
					JOINT LeftShoulder1
					{
						OFFSET 3.53937 -0.14262 -0.08662
						CHANNELS 3 Zrotation Yrotation Xrotation
						JOINT LeftArm
						{
							OFFSET 4.04833 -0.00133 0.12681
							CHANNELS 3 Zrotation Yrotation Xrotation
							JOINT LeftForeArm
							{
								OFFSET 10.33880 -0.01036 -0.55515
								CHANNELS 3 Zrotation Yrotation Xrotation
								JOINT LeftHand
								{
									OFFSET 8.69677 0.07543 0.40060
									CHANNELS 3 Zrotation Yrotation Xrotation
									End Site
									{
										OFFSET 5.28377 -0.21905 0.59205
									}
								}
							}
						}
					}
				}
				JOINT RightShoulderDummy
				{
					OFFSET 0 0 0
					CHANNELS 3 Zrotation Yrotation Xrotation
					JOINT RightShoulder
					{
						OFFSET -3.53937 -0.14262 -0.08660
						CHANNELS 3 Zrotation Yrotation Xrotation
						JOINT RightArm
						{
							OFFSET -4.04833 -0.00133 0.12683
							CHANNELS 3 Zrotation Yrotation Xrotation
							JOINT RightForeArm
							{
								OFFSET -10.37987 -0.01039 -0.55511
								CHANNELS 3 Zrotation Yrotation Xrotation
								JOINT RightHand
								{
									OFFSET -8.67398 0.07538 0.40058
									CHANNELS 3 Zrotation Yrotation Xrotation
									End Site
									{
										OFFSET -5.24810 -0.21916 0.59204
									}
								}
							}
						}
					}
				}
			}
		}
	}
	JOINT LeftUpLegDummy
	{
		OFFSET 0 0 0
		CHANNELS 3 Zrotation Yrotation Xrotation
		JOINT LeftUpLeg
		{
			OFFSET 3.52197 -3.41223 0.04002
			CHANNELS 3 Zrotation Yrotation Xrotation
			JOINT LeftLeg
			{
				OFFSET -0.00012 -17.42399 1.60337
				CHANNELS 3 Zrotation Yrotation Xrotation
				JOINT LeftFoot
				{
					OFFSET -0.09972 -16.50070 -1.63802
					CHANNELS 3 Zrotation Yrotation Xrotation
					JOINT LeftToes
					{
						OFFSET -0.01575 -1.73823 3.34611
						CHANNELS 3 Zrotation Yrotation Xrotation
						End Site
						{
							OFFSET 0.03150 -0.01868 3.85031
						}
					}
				}
			}
		}
	}
}
MOTION
Frames: 19
Frame Time: 0.033333
-4.8030 39.1662 3.2858 -177.3520 32.7332 -174.7140 0.0000 0.0000 0.0000 -6.2532 -7.1433 -7.5854 -3.1003 -7.2949 13.0596 14.7039 -0.8468 -4.9275 0.0000 0.0000 -0.0000 0.0000 0.0000 0.0000 -4.9591 1.9023 4.6514 0.5022 1.7828 28.1460 0.0000 0.0000 0.0000 -10.3297 25.0615 -21.0815 0.0000 0.0000 0.0000 -17.0480 -5.8205 2.2140 -51.1448 -15.4041 19.0756 -0.5476 -87.0445 9.4941 22.2175 -3.0288 -1.6002 0.0000 0.0000 0.0000 13.6171 3.0555 1.3531 58.1579 11.5335 18.9949 179.3306 69.7216 -176.4062 -12.6609 3.9206 -0.9856 0.0000 0.0000 0.0000 5.5616 2.0829 -14.1520 5.9590 9.8141 24.3124 -5.1632 0.0820 -11.1102 0.0000 0.0000 0.0000
-4.7980 39.1689 3.2871 -177.3530 32.7257 -174.6820 0.0000 0.0000 0.0000 -6.2422 -7.1565 -7.5860 -3.0857 -7.2911 13.0141 14.7587 -0.8547 -4.8893 0.0000 0.0000 -0.0000 0.0000 0.0000 0.0000 -4.9757 1.9022 4.6427 0.5157 1.7836 28.1183 0.0000 0.0000 0.0000 -10.3066 25.0897 -21.0815 0.0000 0.0000 0.0000 -17.0612 -5.8279 2.2133 -51.0982 -15.3881 19.0906 -0.5087 -87.0608 9.5025 22.2171 -3.0712 -1.6081 0.0000 0.0000 0.0000 13.5777 3.0730 1.3531 58.2233 11.5134 18.9860 179.3273 69.7347 -176.4257 -12.6067 3.8652 -0.9756 0.0000 0.0000 0.0000 5.5721 2.1016 -14.1677 5.9395 9.7936 24.2770 -5.1597 0.0817 -11.0911 0.0000 0.0000 0.0000
-4.7876 39.1746 3.2905 -177.3610 32.6782 -174.6350 0.0000 0.0000 0.0000 -6.2247 -7.1703 -7.5821 -3.0847 -7.3266 12.9173 14.8102 -0.8639 -4.8403 0.0000 0.0000 -0.0000 0.0000 0.0000 0.0000 -5.0560 1.9006 4.6205 0.5890 1.7526 28.0866 0.0000 0.0000 0.0000 -10.2774 25.1385 -21.0813 0.0000 0.0000 0.0000 -17.0218 -5.8159 2.2076 -51.1071 -15.3739 19.1235 -0.3978 -87.0758 9.5135 22.2852 -3.1597 -1.6298 0.0000 0.0000 0.0000 13.5599 3.0914 1.3531 58.2686 11.4952 18.9837 179.3225 69.7486 -176.4657 -12.5427 3.8097 -0.9648 0.0000 0.0000 0.0000 5.5795 2.1083 -14.1875 5.9021 9.7653 24.1820 -5.1428 0.0806 -11.0503 0.0000 0.0000 0.0000
-4.7783 39.1802 3.2956 -177.3700 32.5993 -174.5950 0.0000 0.0000 0.0000 -6.2008 -7.1729 -7.5603 -3.1050 -7.4011 12.8154 14.8259 -0.8685 -4.8088 0.0000 0.0000 -0.0000 0.0000 0.0000 0.0000 -5.1237 1.8925 4.6027 0.6641 1.7090 28.0772 0.0000 0.0000 0.0000 -10.2652 25.1746 -21.0847 0.0000 0.0000 0.0000 -16.9283 -5.8079 2.1977 -51.1824 -15.3546 19.1231 -0.2761 -87.1007 9.5230 22.3580 -3.2377 -1.6500 0.0000 0.0000 0.0000 13.5866 3.0921 1.3531 58.2411 11.4710 19.0100 179.3191 69.7354 -176.4939 -12.5730 3.8019 -0.9665 0.0000 0.0000 0.0000 5.5888 2.0787 -14.2060 5.8738 9.7543 24.0840 -5.1249 0.0795 -11.0047 0.0000 0.0000 0.0000
-4.7726 39.1823 3.3019 -177.3610 32.5348 -174.5710 0.0000 0.0000 0.0000 -6.1719 -7.1756 -7.5439 -3.1193 -7.4618 12.7656 14.8062 -0.8675 -4.8049 0.0000 0.0000 -0.0000 0.0000 0.0000 0.0000 -5.1135 1.8820 4.6246 0.6845 1.6901 28.0655 0.0000 0.0000 0.0000 -10.2861 25.1885 -21.1105 0.0000 0.0000 0.0000 -16.9265 -5.8287 2.2025 -51.1349 -15.3124 19.0641 -0.3023 -87.1676 9.5561 22.3951 -3.2568 -1.6564 0.0000 0.0000 0.0000 13.5644 3.1039 1.3531 58.2403 11.4043 19.0516 179.3165 69.6981 -176.5232 -12.6474 3.7817 -0.9704 0.0000 0.0000 0.0000 5.6132 2.0453 -14.2250 5.8602 9.7466 24.0432 -5.1365 0.0802 -10.9779 0.0000 0.0000 0.0000
-4.7665 39.1808 3.3095 -177.3500 32.5052 -174.5740 0.0000 0.0000 0.0000 -6.1534 -7.1945 -7.5420 -3.1091 -7.4746 12.7893 14.7688 -0.8623 -4.8346 0.0000 0.0000 -0.0000 0.0000 0.0000 0.0000 -5.0794 1.8834 4.6931 0.6727 1.6966 28.0507 0.0000 0.0000 0.0000 -10.3240 25.2125 -21.1742 0.0000 0.0000 0.0000 -17.0711 -5.8428 2.2182 -50.9095 -15.2945 18.9909 -0.5474 -87.2378 9.6494 22.4250 -3.2097 -1.6498 0.0000 0.0000 0.0000 13.4459 3.1530 1.3531 58.3439 11.3157 19.0775 179.3107 69.6672 -176.5862 -12.6335 3.7127 -0.9623 0.0000 0.0000 0.0000 5.6439 2.0395 -14.2347 5.8464 9.7158 24.0586 -5.1593 0.0817 -10.9747 0.0000 0.0000 0.0000
-4.7573 39.1782 3.3185 -177.3560 32.4858 -174.6070 0.0000 0.0000 0.0000 -6.1528 -7.2236 -7.5378 -3.0908 -7.4641 12.8542 14.7459 -0.8542 -4.8873 0.0000 0.0000 -0.0000 0.0000 0.0000 0.0000 -5.0999 1.8954 4.7669 0.6751 1.7042 28.0816 0.0000 0.0000 0.0000 -10.3379 25.2771 -21.2589 0.0000 0.0000 0.0000 -17.1806 -5.8117 2.2202 -50.7629 -15.3578 18.9571 -0.6644 -87.2370 9.6077 22.3624 -3.1194 -1.6281 0.0000 0.0000 0.0000 13.3342 3.2082 1.3532 58.4548 11.2774 19.0763 179.3015 69.6552 -176.6654 -12.5410 3.6592 -0.9496 0.0000 0.0000 0.0000 5.6641 2.0414 -14.2265 5.8296 9.6731 24.0898 -5.1655 0.0821 -10.9783 0.0000 0.0000 0.0000
-4.7483 39.1759 3.3275 -177.3700 32.4570 -174.6510 0.0000 0.0000 0.0000 -6.1545 -7.2432 -7.5247 -3.0849 -7.4667 12.9178 14.7365 -0.8476 -4.9356 0.0000 0.0000 -0.0000 0.0000 0.0000 0.0000 -5.1557 1.9100 4.8064 0.6977 1.7058 28.1658 0.0000 0.0000 0.0000 -10.3193 25.3547 -21.3089 0.0000 0.0000 0.0000 -17.1033 -5.7677 2.2032 -50.8927 -15.4501 18.9622 -0.5837 -87.1850 9.5117 22.0602 -3.0242 -1.5876 0.0000 0.0000 0.0000 13.3331 3.2183 1.3532 58.4431 11.3051 19.0580 179.3000 69.6424 -176.6837 -12.5079 3.6659 -0.9476 0.0000 0.0000 0.0000 5.6771 2.0170 -14.2095 5.8284 9.6617 24.1121 -5.1711 0.0823 -10.9785 0.0000 0.0000 0.0000
-4.7432 39.1738 3.3343 -177.3660 32.4286 -174.6710 0.0000 0.0000 0.0000 -6.1424 -7.2537 -7.5248 -3.0850 -7.4803 12.9710 14.6936 -0.8419 -4.9616 0.0000 0.0000 -0.0000 0.0000 0.0000 0.0000 -5.1833 1.9237 4.8167 0.7272 1.7074 28.2323 0.0000 0.0000 0.0000 -10.3088 25.3912 -21.2740 0.0000 0.0000 0.0000 -16.9764 -5.7645 2.1916 -51.0998 -15.4612 18.9794 -0.5139 -87.1822 9.5211 21.6389 -2.9794 -1.5479 0.0000 0.0000 0.0000 13.3912 3.1853 1.3532 58.3580 11.3301 19.0367 179.3095 69.6109 -176.6045 -12.5817 3.6733 -0.9542 0.0000 0.0000 0.0000 5.6963 1.9681 -14.2039 5.8520 9.6988 24.1260 -5.1963 0.0835 -10.9707 0.0000 0.0000 0.0000
-4.7409 39.1723 3.3397 -177.3450 32.4030 -174.6540 0.0000 0.0000 0.0000 -6.1187 -7.2679 -7.5553 -3.0831 -7.4948 13.0175 14.6055 -0.8353 -4.9703 0.0000 0.0000 -0.0000 0.0000 0.0000 0.0000 -5.1820 1.9315 4.8227 0.7618 1.7017 28.2295 0.0000 0.0000 0.0000 -10.3334 25.3916 -21.1720 0.0000 0.0000 0.0000 -17.0074 -5.7902 2.2003 -51.0937 -15.3853 19.0082 -0.5031 -87.2547 9.5351 21.4467 -3.0191 -1.5408 0.0000 0.0000 0.0000 13.4021 3.1522 1.3532 58.3440 11.3026 19.0279 179.3271 69.5632 -176.4698 -12.6882 3.6383 -0.9590 0.0000 0.0000 0.0000 5.7252 1.9202 -14.2298 5.8786 9.7402 24.1415 -5.2162 0.0843 -10.9604 0.0000 0.0000 0.0000
-4.7379 39.1718 3.3472 -177.3180 32.3590 -174.6030 0.0000 0.0000 0.0000 -6.0831 -7.2719 -7.6054 -3.0803 -7.5355 13.0428 14.5435 -0.8312 -4.9698 0.0000 0.0000 -0.0000 0.0000 0.0000 0.0000 -5.1881 1.9249 4.8347 0.7961 1.6774 28.1860 0.0000 0.0000 0.0000 -10.3681 25.4183 -21.0870 0.0000 0.0000 0.0000 -17.1534 -5.7953 2.2140 -50.9173 -15.3135 19.0606 -0.5694 -87.3331 9.5478 21.5620 -3.1074 -1.5653 0.0000 0.0000 0.0000 13.3781 3.1367 1.3534 58.3977 11.2535 19.0389 179.3436 69.5061 -176.3493 -12.7840 3.6163 -0.9643 0.0000 0.0000 0.0000 5.7663 1.8908 -14.3035 5.8760 9.7226 24.1742 -5.2112 0.0833 -10.9468 0.0000 0.0000 0.0000
-4.7340 39.1708 3.3592 -177.2780 32.2927 -174.5290 0.0000 0.0000 0.0000 -6.0215 -7.2373 -7.6565 -3.1000 -7.6277 13.0366 14.5710 -0.8332 -4.9611 0.0000 0.0000 -0.0000 0.0000 0.0000 0.0000 -5.1936 1.9076 4.8601 0.8136 1.6459 28.1360 0.0000 0.0000 0.0000 -10.3835 25.4897 -21.0901 0.0000 0.0000 0.0000 -17.2336 -5.7788 2.2169 -50.7975 -15.2845 19.1204 -0.6235 -87.3837 9.5587 21.6787 -3.1695 -1.5854 0.0000 0.0000 0.0000 13.4046 3.1236 1.3546 58.3798 11.2238 19.0476 179.3516 69.4474 -176.2922 -12.8727 3.6441 -0.9741 0.0000 0.0000 0.0000 5.8306 1.8889 -14.4193 5.8392 9.6327 24.2343 -5.2184 0.0830 -10.9398 0.0000 0.0000 0.0000
-4.7310 39.1680 3.3727 -177.2130 32.2343 -174.4480 0.0000 0.0000 0.0000 -5.9365 -7.1749 -7.7041 -3.1324 -7.7364 13.0275 14.6483 -0.8386 -4.9531 0.0000 0.0000 -0.0000 0.0000 0.0000 0.0000 -5.1671 1.8977 4.9060 0.8171 1.6298 28.0762 0.0000 0.0000 0.0000 -10.3961 25.5453 -21.1712 0.0000 0.0000 0.0000 -17.2310 -5.7800 2.2170 -50.7674 -15.2663 19.1582 -0.6403 -87.4244 9.5675 21.5978 -3.1772 -1.5807 0.0000 0.0000 0.0000 13.4880 3.1100 1.3558 58.2348 11.2071 19.0160 179.3509 69.4123 -176.3058 -12.9176 3.6649 -0.9798 0.0000 0.0000 0.0000 5.9158 1.9148 -14.5382 5.7951 9.5239 24.3103 -5.2662 0.0853 -10.9539 0.0000 0.0000 0.0000
-4.7298 39.1631 3.3829 -177.1430 32.2070 -174.3840 0.0000 0.0000 0.0000 -5.8608 -7.1325 -7.7494 -3.1484 -7.7999 13.0506 14.6875 -0.8419 -4.9611 0.0000 0.0000 -0.0000 0.0000 0.0000 0.0000 -5.1234 1.9039 4.9469 0.8314 1.6298 28.0300 0.0000 0.0000 0.0000 -10.4368 25.5429 -21.2611 0.0000 0.0000 0.0000 -17.2599 -5.8041 2.2252 -50.7116 -15.2651 19.1710 -0.6678 -87.4231 9.5684 21.4743 -3.1642 -1.5691 0.0000 0.0000 0.0000 13.5553 3.1125 1.3574 58.0585 11.1975 18.9422 179.3445 69.4324 -176.3539 -12.8879 3.6373 -0.9746 0.0000 0.0000 0.0000 5.9925 1.9464 -14.6197 5.7740 9.4602 24.3774 -5.3131 0.0874 -10.9807 0.0000 0.0000 0.0000
-4.7307 39.1593 3.3872 -177.1000 32.2001 -174.3540 0.0000 0.0000 0.0000 -5.8254 -7.1338 -7.7814 -3.1399 -7.8061 13.0908 14.6663 -0.8412 -4.9807 0.0000 0.0000 -0.0000 0.0000 0.0000 0.0000 -5.1033 1.9128 4.9381 0.8572 1.6303 28.0536 0.0000 0.0000 0.0000 -10.4926 25.5281 -21.3011 0.0000 0.0000 0.0000 -17.3382 -5.8182 2.2353 -50.6272 -15.3176 19.1767 -0.6892 -87.3286 9.5476 21.4657 -3.1684 -1.5672 0.0000 0.0000 0.0000 13.5618 3.1282 1.3607 57.9643 11.2255 18.8740 179.3397 69.5009 -176.3827 -12.8384 3.6038 -0.9673 0.0000 0.0000 0.0000 6.0311 1.9530 -14.6568 5.7811 9.4564 24.4197 -5.3118 0.0863 -10.9949 0.0000 0.0000 0.0000
-4.7331 39.1593 3.3855 -177.0990 32.1947 -174.3580 0.0000 0.0000 0.0000 -5.8353 -7.1635 -7.7779 -3.1203 -7.7863 13.0969 14.6337 -0.8396 -4.9866 0.0000 0.0000 -0.0000 0.0000 0.0000 0.0000 -5.1048 1.9094 4.8844 0.8492 1.6334 28.1389 0.0000 0.0000 0.0000 -10.5138 25.5556 -21.2820 0.0000 0.0000 0.0000 -17.3825 -5.8127 2.2378 -50.5992 -15.3863 19.1815 -0.6572 -87.2013 9.5183 21.4909 -3.1900 -1.5646 0.0000 0.0000 0.0000 13.5164 3.1303 1.3596 57.9972 11.2949 18.8552 179.3393 69.5600 -176.3703 -12.8250 3.6078 -0.9666 0.0000 0.0000 0.0000 6.0258 1.9329 -14.6563 5.7957 9.4791 24.4277 -5.2836 0.0835 -10.9884 0.0000 0.0000 0.0000
-4.7360 39.1624 3.3790 -177.1310 32.1858 -174.3910 0.0000 0.0000 0.0000 -5.8806 -7.2109 -7.7315 -3.0939 -7.7571 13.0538 14.6291 -0.8394 -4.9690 0.0000 0.0000 -0.0000 0.0000 0.0000 0.0000 -5.0882 1.8932 4.8412 0.7678 1.6554 28.2043 0.0000 0.0000 0.0000 -10.4738 25.5975 -21.2319 0.0000 0.0000 0.0000 -17.3504 -5.8087 2.2341 -50.6431 -15.3870 19.1810 -0.6144 -87.1716 9.5148 21.4585 -3.2054 -1.5664 0.0000 0.0000 0.0000 13.4373 3.1113 1.3507 58.1494 11.3435 18.8811 179.3456 69.5504 -176.3152 -12.8105 3.6428 -0.9691 0.0000 0.0000 0.0000 5.9886 1.9149 -14.6180 5.7934 9.4876 24.3953 -5.2694 0.0816 -10.9768 0.0000 0.0000 0.0000
-4.7389 39.1655 3.3696 -177.1760 32.1724 -174.4370 0.0000 0.0000 0.0000 -5.9446 -7.2767 -7.6740 -3.0596 -7.7184 13.0115 14.6433 -0.8397 -4.9550 0.0000 0.0000 -0.0000 0.0000 0.0000 0.0000 -5.0460 1.8716 4.8265 0.6468 1.6892 28.2173 0.0000 0.0000 0.0000 -10.4048 25.5956 -21.1931 0.0000 0.0000 0.0000 -17.2621 -5.8058 2.2258 -50.7253 -15.3211 19.1865 -0.6288 -87.2655 9.5336 21.4242 -3.1950 -1.5682 0.0000 0.0000 0.0000 13.3424 3.0957 1.3419 58.3620 11.3243 18.9188 179.3614 69.4729 -176.2046 -12.7355 3.6947 -0.9685 0.0000 0.0000 0.0000 5.9368 1.9140 -14.5618 5.7719 9.4695 24.3437 -5.2648 0.0803 -10.9738 0.0000 0.0000 0.0000
-4.7421 39.1655 3.3598 -177.2180 32.1553 -174.4720 0.0000 0.0000 0.0000 -6.0045 -7.3372 -7.6547 -3.0377 -7.6863 13.0339 14.6522 -0.8372 -4.9805 0.0000 0.0000 -0.0000 0.0000 0.0000 0.0000 -5.0225 1.8540 4.8009 0.5728 1.7064 28.2322 0.0000 0.0000 0.0000 -10.3642 25.5583 -21.1973 0.0000 0.0000 0.0000 -17.1598 -5.7774 2.2103 -50.8235 -15.2761 19.2174 -0.6882 -87.3813 9.5597 21.4391 -3.1620 -1.5661 0.0000 0.0000 0.0000 13.2646 3.0969 1.3375 58.5314 11.2803 18.9458 179.3800 69.3908 -176.0638 -12.6063 3.7378 -0.9627 0.0000 0.0000 0.0000 5.8866 1.9126 -14.5309 5.7557 9.4490 24.3225 -5.2543 0.0786 -10.9824 0.0000 0.0000 0.0000
